<svg width="474" height="1024" viewBox="0 0 474 1024" fill="none" xmlns="http://www.w3.org/2000/svg">
<path d="M187 -53C131 -7.66667 30.6 114.2 77 239C145.8 370.2 64.3333 555 14.9999 631C-25.7622 735.543 54.301 901.41 94.9999 931C131.443 957.495 181 970.833 177 963.5" stroke="url(#paint0_linear_28_381)"/>
<path d="M187.251 -53C131.251 -7.66667 30.8511 114.2 77.2511 239C146.051 370.2 64.5844 555 15.2511 631C-25.5111 735.543 54.5522 901.41 95.2511 931C131.694 957.495 181.251 970.833 177.251 963.5" stroke="url(#paint1_linear_28_381)"/>
<path d="M194.251 -53C138.251 -7.66667 37.8511 114.2 84.2511 239C153.051 370.2 71.5844 555 22.2511 631C-18.5111 735.543 61.5522 901.41 102.251 931C138.694 957.495 188.251 970.833 184.251 963.5" stroke="url(#paint2_linear_28_381)"/>
<path d="M201.251 -53C145.251 -7.66667 44.8511 114.2 91.2511 239C160.051 370.2 78.5844 555 29.2511 631C-11.5111 735.543 68.5522 901.41 109.251 931C145.694 957.495 195.251 970.833 191.251 963.5" stroke="url(#paint3_linear_28_381)"/>
<path d="M249.251 -37C193.251 8.33333 92.8511 130.2 139.251 255C208.051 386.2 126.584 571 77.2511 647C36.4889 751.543 116.552 917.41 157.251 947C193.694 973.495 243.251 986.833 239.251 979.5" stroke="url(#paint4_linear_28_381)"/>
<path d="M249.251 -26C193.251 19.3333 92.8511 141.2 139.251 266C208.051 397.2 126.584 582 77.2511 658C36.4889 762.543 116.552 928.41 157.251 958C193.694 984.495 243.251 997.833 239.251 990.5" stroke="url(#paint5_linear_28_381)"/>
<path d="M249.251 -18C193.251 27.3333 92.8511 149.2 139.251 274C208.051 405.2 126.584 590 77.2511 666C36.4889 770.543 116.552 936.41 157.251 966C193.694 992.495 243.251 1005.83 239.251 998.5" stroke="url(#paint6_linear_28_381)"/>
<path d="M249.251 -9C193.251 36.3333 92.8511 158.2 139.251 283C208.051 414.2 126.584 599 77.2511 675C36.4889 779.543 116.552 945.41 157.251 975C193.694 1001.5 243.251 1014.83 239.251 1007.5" stroke="url(#paint7_linear_28_381)"/>
<path d="M249.251 -1C193.251 44.3333 92.8511 166.2 139.251 291C208.051 422.2 126.584 607 77.2511 683C36.4889 787.543 116.552 953.41 157.251 983C193.694 1009.5 243.251 1022.83 239.251 1015.5" stroke="url(#paint8_linear_28_381)"/>
<path d="M249.251 -1C193.251 44.3333 92.8511 166.2 139.251 291C208.051 422.2 126.584 607 77.2511 683C36.4889 787.543 116.552 953.41 157.251 983C193.694 1009.5 243.251 1022.83 239.251 1015.5" stroke="url(#paint9_linear_28_381)"/>
<path d="M249.251 5C193.251 50.3333 92.8511 172.2 139.251 297C208.051 428.2 126.584 613 77.2511 689C36.4889 793.543 116.552 959.41 157.251 989C193.694 1015.5 243.251 1028.83 239.251 1021.5" stroke="url(#paint10_linear_28_381)"/>
<path d="M249.251 13C193.251 58.3333 92.8511 180.2 139.251 305C208.051 436.2 126.584 621 77.2511 697C36.4889 801.543 116.552 967.41 157.251 997C193.694 1023.5 243.251 1036.83 239.251 1029.5" stroke="url(#paint11_linear_28_381)"/>
<path d="M243.251 23C187.251 68.3333 86.8511 190.2 133.251 315C202.051 446.2 120.584 631 71.2511 707C30.4889 811.543 110.552 977.41 151.251 1007C187.694 1033.5 237.251 1046.83 233.251 1039.5" stroke="url(#paint12_linear_28_381)"/>
<path d="M243.251 30C187.251 75.3333 86.8511 197.2 133.251 322C202.051 453.2 120.584 638 71.2511 714C30.4889 818.543 110.552 984.41 151.251 1014C187.694 1040.5 237.251 1053.83 233.251 1046.5" stroke="url(#paint13_linear_28_381)"/>
<path d="M243.251 39C187.251 84.3333 86.8511 206.2 133.251 331C202.051 462.2 120.584 647 71.2511 723C30.4889 827.543 110.552 993.41 151.251 1023C187.694 1049.5 237.251 1062.83 233.251 1055.5" stroke="url(#paint14_linear_28_381)"/>
<path d="M243.251 46C187.251 91.3333 86.8511 213.2 133.251 338C202.051 469.2 120.584 654 71.2511 730C30.4889 834.543 110.552 1000.41 151.251 1030C187.694 1056.5 237.251 1069.83 233.251 1062.5" stroke="url(#paint15_linear_28_381)"/>
<path d="M243.251 54C187.251 99.3333 86.8511 221.2 133.251 346C202.051 477.2 120.584 662 71.2511 738C30.4889 842.543 110.552 1008.41 151.251 1038C187.694 1064.5 237.251 1077.83 233.251 1070.5" stroke="url(#paint16_linear_28_381)"/>
<path d="M237.251 64C181.251 109.333 80.8511 231.2 127.251 356C196.051 487.2 114.584 672 65.2511 748C24.4889 852.543 104.552 1018.41 145.251 1048C181.694 1074.5 231.251 1087.83 227.251 1080.5" stroke="url(#paint17_linear_28_381)"/>
<path d="M237.251 74C181.251 119.333 80.8511 241.2 127.251 366C196.051 497.2 114.584 682 65.2511 758C24.4889 862.543 104.552 1028.41 145.251 1058C181.694 1084.5 231.251 1097.83 227.251 1090.5" stroke="url(#paint18_linear_28_381)"/>
<path d="M230.251 84C174.251 129.333 73.8511 251.2 120.251 376C189.051 507.2 107.584 692 58.2511 768C17.4889 872.543 97.5522 1038.41 138.251 1068C174.694 1094.5 224.251 1107.83 220.251 1100.5" stroke="url(#paint19_linear_28_381)"/>
<path d="M220.251 95C164.251 140.333 63.8511 262.2 110.251 387C179.051 518.2 97.5844 703 48.2511 779C7.48893 883.543 87.5522 1049.41 128.251 1079C164.694 1105.5 214.251 1118.83 210.251 1111.5" stroke="url(#paint20_linear_28_381)"/>
<path d="M220.251 103C164.251 148.333 63.8511 270.2 110.251 395C179.051 526.2 97.5844 711 48.2511 787C7.48893 891.543 87.5522 1057.41 128.251 1087C164.694 1113.5 214.251 1126.83 210.251 1119.5" stroke="url(#paint21_linear_28_381)"/>
<path d="M220.251 108C164.251 153.333 63.8511 275.2 110.251 400C179.051 531.2 97.5844 716 48.2511 792C7.48893 896.543 87.5522 1062.41 128.251 1092C164.694 1118.5 214.251 1131.83 210.251 1124.5" stroke="url(#paint22_linear_28_381)"/>
<path d="M220.251 116C164.251 161.333 63.8511 283.2 110.251 408C179.051 539.2 97.5844 724 48.2511 800C7.48893 904.543 87.5522 1070.41 128.251 1100C164.694 1126.5 214.251 1139.83 210.251 1132.5" stroke="url(#paint23_linear_28_381)"/>
<path d="M215.251 123C159.251 168.333 58.8511 290.2 105.251 415C174.051 546.2 92.5844 731 43.2511 807C2.48893 911.543 82.5522 1077.41 123.251 1107C159.694 1133.5 209.251 1146.83 205.251 1139.5" stroke="url(#paint24_linear_28_381)"/>
<path d="M208.251 134C152.251 179.333 51.8511 301.2 98.2511 426C167.051 557.2 85.5844 742 36.2511 818C-4.51107 922.543 75.5522 1088.41 116.251 1118C152.694 1144.5 202.251 1157.83 198.251 1150.5" stroke="url(#paint25_linear_28_381)"/>
<path d="M201.251 143C145.251 188.333 44.8511 310.2 91.2511 435C160.051 566.2 78.5844 751 29.2511 827C-11.5111 931.543 68.5522 1097.41 109.251 1127C145.694 1153.5 195.251 1166.83 191.251 1159.5" stroke="url(#paint26_linear_28_381)"/>
<path d="M194.251 149C138.251 194.333 37.8511 316.2 84.2511 441C153.051 572.2 71.5844 757 22.2511 833C-18.5111 937.543 61.5522 1103.41 102.251 1133C138.694 1159.5 188.251 1172.83 184.251 1165.5" stroke="url(#paint27_linear_28_381)"/>
<path d="M198.251 152C142.251 197.333 41.8511 319.2 88.2511 444C157.051 575.2 75.5844 760 26.2511 836C-14.5111 940.543 65.5522 1106.41 106.251 1136C142.694 1162.5 192.251 1175.83 188.251 1168.5" stroke="url(#paint28_linear_28_381)"/>
<path d="M201.251 152C145.251 197.333 44.8511 319.2 91.2511 444C160.051 575.2 78.5844 760 29.2511 836C-11.5111 940.543 68.5522 1106.41 109.251 1136C145.694 1162.5 195.251 1175.83 191.251 1168.5" stroke="url(#paint29_linear_28_381)"/>
<path d="M201.251 155C145.251 200.333 44.8511 322.2 91.2511 447C160.051 578.2 78.5844 763 29.2511 839C-11.5111 943.543 68.5522 1109.41 109.251 1139C145.694 1165.5 195.251 1178.83 191.251 1171.5" stroke="url(#paint30_linear_28_381)"/>
<path d="M201.251 155C145.251 200.333 44.8511 322.2 91.2511 447C160.051 578.2 78.5844 763 29.2511 839C-11.5111 943.543 68.5522 1109.41 109.251 1139C145.694 1165.5 195.251 1178.83 191.251 1171.5" stroke="url(#paint31_linear_28_381)"/>
<path d="M204.251 158C148.251 203.333 47.8511 325.2 94.2511 450C163.051 581.2 81.5844 766 32.2511 842C-8.51107 946.543 71.5522 1112.41 112.251 1142C148.694 1168.5 198.251 1181.83 194.251 1174.5" stroke="url(#paint32_linear_28_381)"/>
<path d="M204.251 162C148.251 207.333 47.8511 329.2 94.2511 454C163.051 585.2 81.5844 770 32.2511 846C-8.51107 950.543 71.5522 1116.41 112.251 1146C148.694 1172.5 198.251 1185.83 194.251 1178.5" stroke="url(#paint33_linear_28_381)"/>
<path d="M204.251 165C148.251 210.333 47.8511 332.2 94.2511 457C163.051 588.2 81.5844 773 32.2511 849C-8.51107 953.543 71.5522 1119.41 112.251 1149C148.694 1175.5 198.251 1188.83 194.251 1181.5" stroke="url(#paint34_linear_28_381)"/>
<path d="M208.251 165C152.251 210.333 51.8511 332.2 98.2511 457C167.051 588.2 85.5844 773 36.2511 849C-4.51107 953.543 75.5522 1119.41 116.251 1149C152.694 1175.5 202.251 1188.83 198.251 1181.5" stroke="url(#paint35_linear_28_381)"/>
<path d="M208.251 165C152.251 210.333 51.8511 332.2 98.2511 457C167.051 588.2 85.5844 773 36.2511 849C-4.51107 953.543 75.5522 1119.41 116.251 1149C152.694 1175.5 202.251 1188.83 198.251 1181.5" stroke="url(#paint36_linear_28_381)"/>
<path d="M208.251 170C152.251 215.333 51.8511 337.2 98.2511 462C167.051 593.2 85.5844 778 36.2511 854C-4.51107 958.543 75.5522 1124.41 116.251 1154C152.694 1180.5 202.251 1193.83 198.251 1186.5" stroke="url(#paint37_linear_28_381)"/>
<path d="M211.251 170C155.251 215.333 54.8511 337.2 101.251 462C170.051 593.2 88.5844 778 39.2511 854C-1.51107 958.543 78.5522 1124.41 119.251 1154C155.694 1180.5 205.251 1193.83 201.251 1186.5" stroke="url(#paint38_linear_28_381)"/>
<path d="M211.251 174C155.251 219.333 54.8511 341.2 101.251 466C170.051 597.2 88.5844 782 39.2511 858C-1.51107 962.543 78.5522 1128.41 119.251 1158C155.694 1184.5 205.251 1197.83 201.251 1190.5" stroke="url(#paint39_linear_28_381)"/>
<path d="M211.251 179C155.251 224.333 54.8511 346.2 101.251 471C170.051 602.2 88.5844 787 39.2511 863C-1.51107 967.543 78.5522 1133.41 119.251 1163C155.694 1189.5 205.251 1202.83 201.251 1195.5" stroke="url(#paint40_linear_28_381)"/>
<path d="M211.251 182C155.251 227.333 54.8511 349.2 101.251 474C170.051 605.2 88.5844 790 39.2511 866C-1.51107 970.543 78.5522 1136.41 119.251 1166C155.694 1192.5 205.251 1205.83 201.251 1198.5" stroke="url(#paint41_linear_28_381)"/>
<path d="M211.251 188C155.251 233.333 54.8511 355.2 101.251 480C170.051 611.2 88.5844 796 39.2511 872C-1.51107 976.543 78.5522 1142.41 119.251 1172C155.694 1198.5 205.251 1211.83 201.251 1204.5" stroke="url(#paint42_linear_28_381)"/>
<path d="M215.251 191C159.251 236.333 58.8511 358.2 105.251 483C174.051 614.2 92.5844 799 43.2511 875C2.48893 979.543 82.5522 1145.41 123.251 1175C159.694 1201.5 209.251 1214.83 205.251 1207.5" stroke="url(#paint43_linear_28_381)"/>
<path d="M215.251 194C159.251 239.333 58.8511 361.2 105.251 486C174.051 617.2 92.5844 802 43.2511 878C2.48893 982.543 82.5522 1148.41 123.251 1178C159.694 1204.5 209.251 1217.83 205.251 1210.5" stroke="url(#paint44_linear_28_381)"/>
<path d="M215.251 198C159.251 243.333 58.8511 365.2 105.251 490C174.051 621.2 92.5844 806 43.2511 882C2.48893 986.543 82.5522 1152.41 123.251 1182C159.694 1208.5 209.251 1221.83 205.251 1214.5" stroke="url(#paint45_linear_28_381)"/>
<path d="M215.251 202C159.251 247.333 58.8511 369.2 105.251 494C174.051 625.2 92.5844 810 43.2511 886C2.48893 990.543 82.5522 1156.41 123.251 1186C159.694 1212.5 209.251 1225.83 205.251 1218.5" stroke="url(#paint46_linear_28_381)"/>
<path d="M215.251 206C159.251 251.333 58.8511 373.2 105.251 498C174.051 629.2 92.5844 814 43.2511 890C2.48893 994.543 82.5522 1160.41 123.251 1190C159.694 1216.5 209.251 1229.83 205.251 1222.5" stroke="url(#paint47_linear_28_381)"/>
<path d="M215.251 210C159.251 255.333 58.8511 377.2 105.251 502C174.051 633.2 92.5844 818 43.2511 894C2.48893 998.543 82.5522 1164.41 123.251 1194C159.694 1220.5 209.251 1233.83 205.251 1226.5" stroke="url(#paint48_linear_28_381)"/>
<path d="M208.251 198C152.251 243.333 51.8511 365.2 98.2511 490C167.051 621.2 85.5844 806 36.2511 882C-4.51107 986.543 75.5522 1152.41 116.251 1182C152.694 1208.5 202.251 1221.83 198.251 1214.5" stroke="url(#paint49_linear_28_381)"/>
<path d="M215.251 215C159.251 260.333 58.8511 382.2 105.251 507C174.051 638.2 92.5844 823 43.2511 899C2.48893 1003.54 82.5522 1169.41 123.251 1199C159.694 1225.5 209.251 1238.83 205.251 1231.5" stroke="url(#paint50_linear_28_381)"/>
<path d="M215.251 220C159.251 265.333 58.8511 387.2 105.251 512C174.051 643.2 92.5844 828 43.2511 904C2.48893 1008.54 82.5522 1174.41 123.251 1204C159.694 1230.5 209.251 1243.83 205.251 1236.5" stroke="url(#paint51_linear_28_381)"/>
<path d="M215.251 224C159.251 269.333 58.8511 391.2 105.251 516C174.051 647.2 92.5844 832 43.2511 908C2.48893 1012.54 82.5522 1178.41 123.251 1208C159.694 1234.5 209.251 1247.83 205.251 1240.5" stroke="url(#paint52_linear_28_381)"/>
<path d="M215.251 229C159.251 274.333 58.8511 396.2 105.251 521C174.051 652.2 92.5844 837 43.2511 913C2.48893 1017.54 82.5522 1183.41 123.251 1213C159.694 1239.5 209.251 1252.83 205.251 1245.5" stroke="url(#paint53_linear_28_381)"/>
<path d="M184.251 265C128.251 310.333 27.8511 432.2 74.2511 557C143.051 688.2 61.5844 873 12.2511 949C-28.5111 1053.54 51.5522 1219.41 92.2511 1249C128.694 1275.5 178.251 1288.83 174.251 1281.5" stroke="url(#paint54_linear_28_381)"/>
<path d="M184.251 265C128.251 310.333 27.8511 432.2 74.2511 557C143.051 688.2 61.5844 873 12.2511 949C-28.5111 1053.54 51.5522 1219.41 92.2511 1249C128.694 1275.5 178.251 1288.83 174.251 1281.5" stroke="url(#paint55_linear_28_381)"/>
<path d="M251.015 20C205.811 76.1044 133.31 216.373 204.938 328.611C299.811 442.392 259.065 640.199 226.832 724.88C208.987 835.66 322.168 980.96 368.183 1001.32C409.386 1019.55 460.64 1022.16 455.186 1015.83" stroke="url(#paint56_linear_28_381)"/>
<path d="M255.146 -8.99999C209.942 47.1044 137.441 187.373 209.069 299.611C303.942 413.392 263.196 611.199 230.964 695.88C213.118 806.66 326.299 951.96 372.314 972.321C413.517 990.553 464.771 993.162 459.317 986.835" stroke="url(#paint57_linear_28_381)"/>
<path d="M251.146 5.32112e-06C205.942 56.1044 133.441 196.373 205.069 308.611C299.942 422.392 259.196 620.199 226.964 704.88C209.118 815.66 322.299 960.96 368.314 981.321C409.517 999.553 460.771 1002.16 455.317 995.835" stroke="url(#paint58_linear_28_381)"/>
<path d="M248.146 50C202.942 106.104 130.441 246.373 202.069 358.611C296.942 472.392 256.196 670.199 223.964 754.88C206.118 865.66 319.299 1010.96 365.314 1031.32C406.517 1049.55 457.771 1052.16 452.317 1045.83" stroke="url(#paint59_linear_28_381)"/>
<path d="M247.146 10C201.942 66.1044 129.441 206.373 201.069 318.611C295.942 432.392 255.196 630.199 222.964 714.88C205.118 825.66 318.299 970.96 364.314 991.321C405.517 1009.55 456.771 1012.16 451.317 1005.83" stroke="url(#paint60_linear_28_381)"/>
<path d="M247.146 19C201.942 75.1044 129.441 215.373 201.069 327.611C295.942 441.392 255.196 639.199 222.964 723.88C205.118 834.66 318.299 979.96 364.314 1000.32C405.517 1018.55 456.771 1021.16 451.317 1014.83" stroke="url(#paint61_linear_28_381)"/>
<path d="M247.146 25C201.942 81.1044 129.441 221.373 201.069 333.611C295.942 447.392 255.196 645.199 222.964 729.88C205.118 840.66 318.299 985.96 364.314 1006.32C405.517 1024.55 456.771 1027.16 451.317 1020.83" stroke="url(#paint62_linear_28_381)"/>
<path d="M247.146 35C201.942 91.1044 129.441 231.373 201.069 343.611C295.942 457.392 255.196 655.199 222.964 739.88C205.118 850.66 318.299 995.96 364.314 1016.32C405.517 1034.55 456.771 1037.16 451.317 1030.83" stroke="url(#paint63_linear_28_381)"/>
<path d="M247.146 43C201.942 99.1044 129.441 239.373 201.069 351.611C295.942 465.392 255.196 663.199 222.964 747.88C205.118 858.66 318.299 1003.96 364.314 1024.32C405.517 1042.55 456.771 1045.16 451.317 1038.83" stroke="url(#paint64_linear_28_381)"/>
<path d="M248.146 53C202.942 109.104 130.441 249.373 202.069 361.611C296.942 475.392 256.196 673.199 223.964 757.88C206.118 868.66 319.299 1013.96 365.314 1034.32C406.517 1052.55 457.771 1055.16 452.317 1048.83" stroke="url(#paint65_linear_28_381)"/>
<path d="M247.146 63C201.942 119.104 129.441 259.373 201.069 371.611C295.942 485.392 255.196 683.199 222.964 767.88C205.118 878.66 318.299 1023.96 364.314 1044.32C405.517 1062.55 456.771 1065.16 451.317 1058.83" stroke="url(#paint66_linear_28_381)"/>
<path d="M255.146 59C209.942 115.104 137.441 255.373 209.069 367.611C303.942 481.392 263.196 679.199 230.964 763.88C213.118 874.66 326.299 1019.96 372.314 1040.32C413.517 1058.55 464.771 1061.16 459.317 1054.83" stroke="url(#paint67_linear_28_381)"/>
<path d="M247.146 68C201.942 124.104 129.441 264.373 201.069 376.611C295.942 490.392 255.196 688.199 222.964 772.88C205.118 883.66 318.299 1028.96 364.314 1049.32C405.517 1067.55 456.771 1070.16 451.317 1063.83" stroke="url(#paint68_linear_28_381)"/>
<path d="M247.146 74C201.942 130.104 129.441 270.373 201.069 382.611C295.942 496.392 255.196 694.199 222.964 778.88C205.118 889.66 318.299 1034.96 364.314 1055.32C405.517 1073.55 456.771 1076.16 451.317 1069.83" stroke="url(#paint69_linear_28_381)"/>
<path d="M248.146 82C202.942 138.104 130.441 278.373 202.069 390.611C296.942 504.392 256.196 702.199 223.964 786.88C206.118 897.66 319.299 1042.96 365.314 1063.32C406.517 1081.55 457.771 1084.16 452.317 1077.83" stroke="url(#paint70_linear_28_381)"/>
<path d="M248.146 92C202.942 148.104 130.441 288.373 202.069 400.611C296.942 514.392 256.196 712.199 223.964 796.88C206.118 907.66 319.299 1052.96 365.314 1073.32C406.517 1091.55 457.771 1094.16 452.317 1087.83" stroke="url(#paint71_linear_28_381)"/>
<path d="M251.146 97C205.942 153.104 133.441 293.373 205.069 405.611C299.942 519.392 259.196 717.199 226.964 801.88C209.118 912.66 322.299 1057.96 368.314 1078.32C409.517 1096.55 460.771 1099.16 455.317 1092.83" stroke="url(#paint72_linear_28_381)"/>
<path d="M251.146 104C205.942 160.104 133.441 300.373 205.069 412.611C299.942 526.392 259.196 724.199 226.964 808.88C209.118 919.66 322.299 1064.96 368.314 1085.32C409.517 1103.55 460.771 1106.16 455.317 1099.83" stroke="url(#paint73_linear_28_381)"/>
<path d="M247.146 112C201.942 168.104 129.441 308.373 201.069 420.611C295.942 534.392 255.196 732.199 222.964 816.88C205.118 927.66 318.299 1072.96 364.314 1093.32C405.517 1111.55 456.771 1114.16 451.317 1107.83" stroke="url(#paint74_linear_28_381)"/>
<path d="M247.146 123C201.942 179.104 129.441 319.373 201.069 431.611C295.942 545.392 255.196 743.199 222.964 827.88C205.118 938.66 318.299 1083.96 364.314 1104.32C405.517 1122.55 456.771 1125.16 451.317 1118.83" stroke="url(#paint75_linear_28_381)"/>
<path d="M247.146 131C201.942 187.104 129.441 327.373 201.069 439.611C295.942 553.392 255.196 751.199 222.964 835.88C205.118 946.66 318.299 1091.96 364.314 1112.32C405.517 1130.55 456.771 1133.16 451.317 1126.83" stroke="url(#paint76_linear_28_381)"/>
<path d="M247.146 136C201.942 192.104 129.441 332.373 201.069 444.611C295.942 558.392 255.196 756.199 222.964 840.88C205.118 951.66 318.299 1096.96 364.314 1117.32C405.517 1135.55 456.771 1138.16 451.317 1131.83" stroke="url(#paint77_linear_28_381)"/>
<path d="M248.146 144C202.942 200.104 130.441 340.373 202.069 452.611C296.942 566.392 256.196 764.199 223.964 848.88C206.118 959.66 319.299 1104.96 365.314 1125.32C406.517 1143.55 457.771 1146.16 452.317 1139.83" stroke="url(#paint78_linear_28_381)"/>
<path d="M248.146 151C202.942 207.104 130.441 347.373 202.069 459.611C296.942 573.392 256.196 771.199 223.964 855.88C206.118 966.66 319.299 1111.96 365.314 1132.32C406.517 1150.55 457.771 1153.16 452.317 1146.83" stroke="url(#paint79_linear_28_381)"/>
<path d="M238.146 163C192.942 219.104 120.441 359.373 192.069 471.611C286.942 585.392 246.196 783.199 213.964 867.88C196.118 978.66 309.299 1123.96 355.314 1144.32C396.517 1162.55 447.771 1165.16 442.317 1158.83" stroke="url(#paint80_linear_28_381)"/>
<path d="M247.146 171C201.942 227.104 129.441 367.373 201.069 479.611C295.942 593.392 255.196 791.199 222.964 875.88C205.118 986.66 318.299 1131.96 364.314 1152.32C405.517 1170.55 456.771 1173.16 451.317 1166.83" stroke="url(#paint81_linear_28_381)"/>
<path d="M238.146 183C192.942 239.104 120.441 379.373 192.069 491.611C286.942 605.392 246.196 803.199 213.964 887.88C196.118 998.66 309.299 1143.96 355.314 1164.32C396.517 1182.55 447.771 1185.16 442.317 1178.83" stroke="url(#paint82_linear_28_381)"/>
<path d="M259.146 183C213.942 239.104 141.441 379.373 213.069 491.611C307.942 605.392 267.196 803.199 234.964 887.88C217.118 998.66 330.299 1143.96 376.314 1164.32C417.517 1182.55 468.771 1185.16 463.317 1178.83" stroke="url(#paint83_linear_28_381)"/>
<path d="M251.146 187C205.942 243.104 133.441 383.373 205.069 495.611C299.942 609.392 259.196 807.199 226.964 891.88C209.118 1002.66 322.299 1147.96 368.314 1168.32C409.517 1186.55 460.771 1189.16 455.317 1182.83" stroke="url(#paint84_linear_28_381)"/>
<path d="M247.146 193C201.942 249.104 129.441 389.373 201.069 501.611C295.942 615.392 255.196 813.199 222.964 897.88C205.118 1008.66 318.299 1153.96 364.314 1174.32C405.517 1192.55 456.771 1195.16 451.317 1188.83" stroke="url(#paint85_linear_28_381)"/>
<path d="M238.146 202C192.942 258.104 120.441 398.373 192.069 510.611C286.942 624.392 246.196 822.199 213.964 906.88C196.118 1017.66 309.299 1162.96 355.314 1183.32C396.517 1201.55 447.771 1204.16 442.317 1197.83" stroke="url(#paint86_linear_28_381)"/>
<path d="M242.146 218C196.942 274.104 124.441 414.373 196.069 526.611C290.942 640.392 250.196 838.199 217.964 922.88C200.118 1033.66 313.299 1178.96 359.314 1199.32C400.517 1217.55 451.771 1220.16 446.317 1213.83" stroke="url(#paint87_linear_28_381)"/>
<path d="M242.146 230C196.942 286.104 124.441 426.373 196.069 538.611C290.942 652.392 250.196 850.199 217.964 934.88C200.118 1045.66 313.299 1190.96 359.314 1211.32C400.517 1229.55 451.771 1232.16 446.317 1225.83" stroke="url(#paint88_linear_28_381)"/>
<path d="M242.146 240C196.942 296.104 124.441 436.373 196.069 548.611C290.942 662.392 250.196 860.199 217.964 944.88C200.118 1055.66 313.299 1200.96 359.314 1221.32C400.517 1239.55 451.771 1242.16 446.317 1235.83" stroke="url(#paint89_linear_28_381)"/>
<path d="M238.146 243C192.942 299.104 120.441 439.373 192.069 551.611C286.942 665.392 246.196 863.199 213.964 947.88C196.118 1058.66 309.299 1203.96 355.314 1224.32C396.517 1242.55 447.771 1245.16 442.317 1238.83" stroke="url(#paint90_linear_28_381)"/>
<path d="M238.146 248C192.942 304.104 120.441 444.373 192.069 556.611C286.942 670.392 246.196 868.199 213.964 952.88C196.118 1063.66 309.299 1208.96 355.314 1229.32C396.517 1247.55 447.771 1250.16 442.317 1243.83" stroke="url(#paint91_linear_28_381)"/>
<path d="M248.146 234C202.942 290.104 130.441 430.373 202.069 542.611C296.942 656.392 256.196 854.199 223.964 938.88C206.118 1049.66 319.299 1194.96 365.314 1215.32C406.517 1233.55 457.771 1236.16 452.317 1229.83" stroke="url(#paint92_linear_28_381)"/>
<path d="M255.146 226C209.942 282.104 137.441 422.373 209.069 534.611C303.942 648.392 263.196 846.199 230.964 930.88C213.118 1041.66 326.299 1186.96 372.314 1207.32C413.517 1225.55 464.771 1228.16 459.317 1221.83" stroke="url(#paint93_linear_28_381)"/>
<path d="M201.251 -45C145.251 0.333332 44.8511 122.2 91.2511 247C160.051 378.2 78.5844 563 29.2511 639C-11.5111 743.543 68.5522 909.41 109.251 939C145.694 965.495 195.251 978.833 191.251 971.5" stroke="url(#paint94_linear_28_381)"/>
<path d="M208.251 -45C152.251 0.333332 51.8511 122.2 98.2511 247C167.051 378.2 85.5844 563 36.2511 639C-4.51107 743.543 75.5522 909.41 116.251 939C152.694 965.495 202.251 978.833 198.251 971.5" stroke="url(#paint95_linear_28_381)"/>
<path d="M215.251 -45C159.251 0.333332 58.8511 122.2 105.251 247C174.051 378.2 92.5844 563 43.2511 639C2.48893 743.543 82.5522 909.41 123.251 939C159.694 965.495 209.251 978.833 205.251 971.5" stroke="url(#paint96_linear_28_381)"/>
<path d="M220.251 -45C164.251 0.333332 63.8511 122.2 110.251 247C179.051 378.2 97.5844 563 48.2511 639C7.48893 743.543 87.5522 909.41 128.251 939C164.694 965.495 214.251 978.833 210.251 971.5" stroke="url(#paint97_linear_28_381)"/>
<path d="M225.251 -45C169.251 0.333332 68.8511 122.2 115.251 247C184.051 378.2 102.584 563 53.2511 639C12.4889 743.543 92.5522 909.41 133.251 939C169.694 965.495 219.251 978.833 215.251 971.5" stroke="url(#paint98_linear_28_381)"/>
<path d="M230.251 -45C174.251 0.333332 73.8511 122.2 120.251 247C189.051 378.2 107.584 563 58.2511 639C17.4889 743.543 97.5522 909.41 138.251 939C174.694 965.495 224.251 978.833 220.251 971.5" stroke="url(#paint99_linear_28_381)"/>
<path d="M237.251 -45C181.251 0.333332 80.8511 122.2 127.251 247C196.051 378.2 114.584 563 65.2511 639C24.4889 743.543 104.552 909.41 145.251 939C181.694 965.495 231.251 978.833 227.251 971.5" stroke="url(#paint100_linear_28_381)"/>
<path d="M243.251 -45C187.251 0.333332 86.8511 122.2 133.251 247C202.051 378.2 120.584 563 71.2511 639C30.4889 743.543 110.552 909.41 151.251 939C187.694 965.495 237.251 978.833 233.251 971.5" stroke="url(#paint101_linear_28_381)"/>
<path d="M243.251 -45C187.251 0.333332 86.8511 122.2 133.251 247C202.051 378.2 120.584 563 71.2511 639C30.4889 743.543 110.552 909.41 151.251 939C187.694 965.495 237.251 978.833 233.251 971.5" stroke="url(#paint102_linear_28_381)"/>
<path d="M249.251 -45C193.251 0.333332 92.8511 122.2 139.251 247C208.051 378.2 126.584 563 77.2511 639C36.4889 743.543 116.552 909.41 157.251 939C193.694 965.495 243.251 978.833 239.251 971.5" stroke="url(#paint103_linear_28_381)"/>
<path d="M338.408 -40.736C280.566 2.22258 175.172 119.796 216.327 246.423C279.596 380.378 190.493 561.62 138.033 635.496C92.947 738.248 166.024 907.31 205.453 938.571C240.759 966.564 289.717 981.956 286.027 974.463" stroke="url(#paint104_linear_28_381)"/>
<path d="M345.565 -40.358C287.724 2.60057 182.329 120.174 223.484 246.801C286.753 380.756 197.65 561.998 145.191 635.874C100.104 738.626 173.181 907.688 212.61 938.949C247.916 966.942 296.874 982.334 293.184 974.841" stroke="url(#paint105_linear_28_381)"/>
<path d="M349.565 -32.358C291.724 10.6006 186.329 128.174 227.484 254.801C290.753 388.756 201.65 569.998 149.191 643.874C104.104 746.626 177.181 915.688 216.61 946.949C251.916 974.942 300.874 990.334 297.184 982.841" stroke="url(#paint106_linear_28_381)"/>
<path d="M354.565 -22.358C296.724 20.6006 191.329 138.174 232.484 264.801C295.753 398.756 206.65 579.998 154.191 653.874C109.104 756.626 182.181 925.688 221.61 956.949C256.916 984.942 305.874 1000.33 302.184 992.841" stroke="url(#paint107_linear_28_381)"/>
<path d="M359.565 -10.358C301.724 32.6006 196.329 150.174 237.484 276.801C300.753 410.756 211.65 591.998 159.191 665.874C114.104 768.626 187.181 937.688 226.61 968.949C261.916 996.942 310.874 1012.33 307.184 1004.84" stroke="url(#paint108_linear_28_381)"/>
<path d="M364.565 -1.358C306.724 41.6006 201.329 159.174 242.484 285.801C305.753 419.756 216.65 600.998 164.191 674.874C119.104 777.626 192.181 946.688 231.61 977.949C266.916 1005.94 315.874 1021.33 312.184 1013.84" stroke="url(#paint109_linear_28_381)"/>
<path d="M367.565 8.642C309.724 51.6006 204.329 169.174 245.484 295.801C308.753 429.756 219.65 610.998 167.191 684.874C122.104 787.626 195.181 956.688 234.61 987.949C269.916 1015.94 318.874 1031.33 315.184 1023.84" stroke="url(#paint110_linear_28_381)"/>
<path d="M370.565 16.642C312.724 59.6006 207.329 177.174 248.484 303.801C311.753 437.756 222.65 618.998 170.191 692.874C125.104 795.626 198.181 964.688 237.61 995.949C272.916 1023.94 321.874 1039.33 318.184 1031.84" stroke="url(#paint111_linear_28_381)"/>
<path d="M372.565 24.642C314.724 67.6006 209.329 185.174 250.484 311.801C313.753 445.756 224.65 626.998 172.191 700.874C127.104 803.626 200.181 972.688 239.61 1003.95C274.916 1031.94 323.874 1047.33 320.184 1039.84" stroke="url(#paint112_linear_28_381)"/>
<path d="M377.565 36.642C319.724 79.6006 214.329 197.174 255.484 323.801C318.753 457.756 229.65 638.998 177.191 712.874C132.104 815.626 205.181 984.688 244.61 1015.95C279.916 1043.94 328.874 1059.33 325.184 1051.84" stroke="url(#paint113_linear_28_381)"/>
<path d="M380.565 42.642C322.724 85.6006 217.329 203.174 258.484 329.801C321.753 463.756 232.65 644.998 180.191 718.874C135.104 821.626 208.181 990.688 247.61 1021.95C282.916 1049.94 331.874 1065.33 328.184 1057.84" stroke="url(#paint114_linear_28_381)"/>
<path d="M384.565 49.642C326.724 92.6006 221.329 210.174 262.484 336.801C325.753 470.756 236.65 651.998 184.191 725.874C139.104 828.626 212.181 997.688 251.61 1028.95C286.916 1056.94 335.874 1072.33 332.184 1064.84" stroke="url(#paint115_linear_28_381)"/>
<path d="M389.565 60.642C331.724 103.601 226.329 221.174 267.484 347.801C330.753 481.756 241.65 662.998 189.191 736.874C144.104 839.626 217.181 1008.69 256.61 1039.95C291.916 1067.94 340.874 1083.33 337.184 1075.84" stroke="url(#paint116_linear_28_381)"/>
<path d="M391.565 70.642C333.724 113.601 228.329 231.174 269.484 357.801C332.753 491.756 243.65 672.998 191.191 746.874C146.104 849.626 219.181 1018.69 258.61 1049.95C293.916 1077.94 342.874 1093.33 339.184 1085.84" stroke="url(#paint117_linear_28_381)"/>
<path d="M397.565 75.642C339.724 118.601 234.329 236.174 275.484 362.801C338.753 496.756 249.65 677.998 197.191 751.874C152.104 854.626 225.181 1023.69 264.61 1054.95C299.916 1082.94 348.874 1098.33 345.184 1090.84" stroke="url(#paint118_linear_28_381)"/>
<path d="M398.565 89.642C340.724 132.601 235.329 250.174 276.484 376.801C339.753 510.756 250.65 691.998 198.191 765.874C153.104 868.626 226.181 1037.69 265.61 1068.95C300.916 1096.94 349.874 1112.33 346.184 1104.84" stroke="url(#paint119_linear_28_381)"/>
<path d="M402.565 94.642C344.724 137.601 239.329 255.174 280.484 381.801C343.753 515.756 254.65 696.998 202.191 770.874C157.104 873.626 230.181 1042.69 269.61 1073.95C304.916 1101.94 353.874 1117.33 350.184 1109.84" stroke="url(#paint120_linear_28_381)"/>
<path d="M403.565 111.642C345.724 154.601 240.329 272.174 281.484 398.801C344.753 532.756 255.65 713.998 203.191 787.874C158.104 890.626 231.181 1059.69 270.61 1090.95C305.916 1118.94 354.874 1134.33 351.184 1126.84" stroke="url(#paint121_linear_28_381)"/>
<path d="M407.565 119.642C349.724 162.601 244.329 280.174 285.484 406.801C348.753 540.756 259.65 721.998 207.191 795.874C162.104 898.626 235.181 1067.69 274.61 1098.95C309.916 1126.94 358.874 1142.33 355.184 1134.84" stroke="url(#paint122_linear_28_381)"/>
<path d="M410.565 135.642C352.724 178.601 247.329 296.174 288.484 422.801C351.753 556.756 262.65 737.998 210.191 811.874C165.104 914.626 238.181 1083.69 277.61 1114.95C312.916 1142.94 361.874 1158.33 358.184 1150.84" stroke="url(#paint123_linear_28_381)"/>
<path d="M415.565 141.642C357.724 184.601 252.329 302.174 293.484 428.801C356.753 562.756 267.65 743.998 215.191 817.874C170.104 920.626 243.181 1089.69 282.61 1120.95C317.916 1148.94 366.874 1164.33 363.184 1156.84" stroke="url(#paint124_linear_28_381)"/>
<path d="M416.565 148.642C358.724 191.601 253.329 309.174 294.484 435.801C357.753 569.756 268.65 750.998 216.191 824.874C171.104 927.626 244.181 1096.69 283.61 1127.95C318.916 1155.94 367.874 1171.33 364.184 1163.84" stroke="url(#paint125_linear_28_381)"/>
<path d="M420.565 159.642C362.724 202.601 257.329 320.174 298.484 446.801C361.753 580.756 272.65 761.998 220.191 835.874C175.104 938.626 248.181 1107.69 287.61 1138.95C322.916 1166.94 371.874 1182.33 368.184 1174.84" stroke="url(#paint126_linear_28_381)"/>
<path d="M342.565 -35.358C284.724 7.60057 179.329 125.174 220.484 251.801C283.753 385.756 194.65 566.998 142.191 640.874C97.1041 743.626 170.181 912.688 209.61 943.949C244.916 971.942 293.874 987.334 290.184 979.841" stroke="url(#paint127_linear_28_381)"/>
<defs>
<linearGradient id="paint0_linear_28_381" x1="95.3744" y1="-53" x2="95.3744" y2="965.495" gradientUnits="userSpaceOnUse">
<stop offset="0.0765836" stop-color="#04071F"/>
<stop offset="0.40625" stop-color="#3F43A3"/>
<stop offset="1" stop-color="#04071F" stop-opacity="0.76"/>
</linearGradient>
<linearGradient id="paint1_linear_28_381" x1="95.6256" y1="-53" x2="95.6256" y2="965.495" gradientUnits="userSpaceOnUse">
<stop offset="0.0765836" stop-color="#04071F"/>
<stop offset="0.40625" stop-color="#3F43A3"/>
<stop offset="1" stop-color="#04071F" stop-opacity="0.76"/>
</linearGradient>
<linearGradient id="paint2_linear_28_381" x1="102.626" y1="-53" x2="102.626" y2="965.495" gradientUnits="userSpaceOnUse">
<stop offset="0.0765836" stop-color="#04071F"/>
<stop offset="0.40625" stop-color="#3F43A3"/>
<stop offset="1" stop-color="#04071F" stop-opacity="0.76"/>
</linearGradient>
<linearGradient id="paint3_linear_28_381" x1="109.626" y1="-53" x2="109.626" y2="965.495" gradientUnits="userSpaceOnUse">
<stop offset="0.0765836" stop-color="#04071F"/>
<stop offset="0.40625" stop-color="#3F43A3"/>
<stop offset="1" stop-color="#04071F" stop-opacity="0.76"/>
</linearGradient>
<linearGradient id="paint4_linear_28_381" x1="157.626" y1="-37" x2="157.626" y2="981.495" gradientUnits="userSpaceOnUse">
<stop offset="0.0765836" stop-color="#04071F"/>
<stop offset="0.40625" stop-color="#3F43A3"/>
<stop offset="1" stop-color="#04071F" stop-opacity="0.76"/>
</linearGradient>
<linearGradient id="paint5_linear_28_381" x1="157.626" y1="-26" x2="157.626" y2="992.495" gradientUnits="userSpaceOnUse">
<stop offset="0.0765836" stop-color="#04071F"/>
<stop offset="0.40625" stop-color="#3F43A3"/>
<stop offset="1" stop-color="#04071F" stop-opacity="0.76"/>
</linearGradient>
<linearGradient id="paint6_linear_28_381" x1="157.626" y1="-18" x2="157.626" y2="1000.5" gradientUnits="userSpaceOnUse">
<stop offset="0.0765836" stop-color="#04071F"/>
<stop offset="0.40625" stop-color="#3F43A3"/>
<stop offset="1" stop-color="#04071F" stop-opacity="0.76"/>
</linearGradient>
<linearGradient id="paint7_linear_28_381" x1="157.626" y1="-9" x2="157.626" y2="1009.5" gradientUnits="userSpaceOnUse">
<stop offset="0.0765836" stop-color="#04071F"/>
<stop offset="0.40625" stop-color="#3F43A3"/>
<stop offset="1" stop-color="#04071F" stop-opacity="0.76"/>
</linearGradient>
<linearGradient id="paint8_linear_28_381" x1="157.626" y1="-1" x2="157.626" y2="1017.5" gradientUnits="userSpaceOnUse">
<stop offset="0.0765836" stop-color="#04071F"/>
<stop offset="0.40625" stop-color="#3F43A3"/>
<stop offset="1" stop-color="#04071F" stop-opacity="0.76"/>
</linearGradient>
<linearGradient id="paint9_linear_28_381" x1="157.626" y1="-1" x2="157.626" y2="1017.5" gradientUnits="userSpaceOnUse">
<stop offset="0.0765836" stop-color="#04071F"/>
<stop offset="0.40625" stop-color="#3F43A3"/>
<stop offset="1" stop-color="#04071F" stop-opacity="0.76"/>
</linearGradient>
<linearGradient id="paint10_linear_28_381" x1="157.626" y1="5" x2="157.626" y2="1023.5" gradientUnits="userSpaceOnUse">
<stop offset="0.0765836" stop-color="#04071F"/>
<stop offset="0.40625" stop-color="#3F43A3"/>
<stop offset="1" stop-color="#04071F" stop-opacity="0.76"/>
</linearGradient>
<linearGradient id="paint11_linear_28_381" x1="157.626" y1="13" x2="157.626" y2="1031.5" gradientUnits="userSpaceOnUse">
<stop offset="0.0765836" stop-color="#04071F"/>
<stop offset="0.40625" stop-color="#3F43A3"/>
<stop offset="1" stop-color="#04071F" stop-opacity="0.76"/>
</linearGradient>
<linearGradient id="paint12_linear_28_381" x1="151.626" y1="23" x2="151.626" y2="1041.5" gradientUnits="userSpaceOnUse">
<stop offset="0.0765836" stop-color="#04071F"/>
<stop offset="0.40625" stop-color="#3F43A3"/>
<stop offset="1" stop-color="#04071F" stop-opacity="0.76"/>
</linearGradient>
<linearGradient id="paint13_linear_28_381" x1="151.626" y1="30" x2="151.626" y2="1048.5" gradientUnits="userSpaceOnUse">
<stop offset="0.0765836" stop-color="#04071F"/>
<stop offset="0.40625" stop-color="#3F43A3"/>
<stop offset="1" stop-color="#04071F" stop-opacity="0.76"/>
</linearGradient>
<linearGradient id="paint14_linear_28_381" x1="151.626" y1="39" x2="151.626" y2="1057.5" gradientUnits="userSpaceOnUse">
<stop offset="0.0765836" stop-color="#04071F"/>
<stop offset="0.40625" stop-color="#3F43A3"/>
<stop offset="1" stop-color="#04071F" stop-opacity="0.76"/>
</linearGradient>
<linearGradient id="paint15_linear_28_381" x1="151.626" y1="46" x2="151.626" y2="1064.5" gradientUnits="userSpaceOnUse">
<stop offset="0.0765836" stop-color="#04071F"/>
<stop offset="0.40625" stop-color="#3F43A3"/>
<stop offset="1" stop-color="#04071F" stop-opacity="0.76"/>
</linearGradient>
<linearGradient id="paint16_linear_28_381" x1="151.626" y1="54" x2="151.626" y2="1072.5" gradientUnits="userSpaceOnUse">
<stop offset="0.0765836" stop-color="#04071F"/>
<stop offset="0.40625" stop-color="#3F43A3"/>
<stop offset="1" stop-color="#04071F" stop-opacity="0.76"/>
</linearGradient>
<linearGradient id="paint17_linear_28_381" x1="145.626" y1="64" x2="145.626" y2="1082.5" gradientUnits="userSpaceOnUse">
<stop offset="0.0765836" stop-color="#04071F"/>
<stop offset="0.40625" stop-color="#3F43A3"/>
<stop offset="1" stop-color="#04071F" stop-opacity="0.76"/>
</linearGradient>
<linearGradient id="paint18_linear_28_381" x1="145.626" y1="74" x2="145.626" y2="1092.5" gradientUnits="userSpaceOnUse">
<stop offset="0.0765836" stop-color="#04071F"/>
<stop offset="0.40625" stop-color="#3F43A3"/>
<stop offset="1" stop-color="#04071F" stop-opacity="0.76"/>
</linearGradient>
<linearGradient id="paint19_linear_28_381" x1="138.626" y1="84" x2="138.626" y2="1102.5" gradientUnits="userSpaceOnUse">
<stop offset="0.0765836" stop-color="#04071F"/>
<stop offset="0.40625" stop-color="#3F43A3"/>
<stop offset="1" stop-color="#04071F" stop-opacity="0.76"/>
</linearGradient>
<linearGradient id="paint20_linear_28_381" x1="128.626" y1="95" x2="128.626" y2="1113.5" gradientUnits="userSpaceOnUse">
<stop offset="0.0765836" stop-color="#04071F"/>
<stop offset="0.40625" stop-color="#3F43A3"/>
<stop offset="1" stop-color="#04071F" stop-opacity="0.76"/>
</linearGradient>
<linearGradient id="paint21_linear_28_381" x1="128.626" y1="103" x2="128.626" y2="1121.5" gradientUnits="userSpaceOnUse">
<stop offset="0.0765836" stop-color="#04071F"/>
<stop offset="0.40625" stop-color="#3F43A3"/>
<stop offset="1" stop-color="#04071F" stop-opacity="0.76"/>
</linearGradient>
<linearGradient id="paint22_linear_28_381" x1="128.626" y1="108" x2="128.626" y2="1126.5" gradientUnits="userSpaceOnUse">
<stop offset="0.0765836" stop-color="#04071F"/>
<stop offset="0.40625" stop-color="#3F43A3"/>
<stop offset="1" stop-color="#04071F" stop-opacity="0.76"/>
</linearGradient>
<linearGradient id="paint23_linear_28_381" x1="128.626" y1="116" x2="128.626" y2="1134.5" gradientUnits="userSpaceOnUse">
<stop offset="0.0765836" stop-color="#04071F"/>
<stop offset="0.40625" stop-color="#3F43A3"/>
<stop offset="1" stop-color="#04071F" stop-opacity="0.76"/>
</linearGradient>
<linearGradient id="paint24_linear_28_381" x1="123.626" y1="123" x2="123.626" y2="1141.5" gradientUnits="userSpaceOnUse">
<stop offset="0.0765836" stop-color="#04071F"/>
<stop offset="0.40625" stop-color="#3F43A3"/>
<stop offset="1" stop-color="#04071F" stop-opacity="0.76"/>
</linearGradient>
<linearGradient id="paint25_linear_28_381" x1="116.626" y1="134" x2="116.626" y2="1152.5" gradientUnits="userSpaceOnUse">
<stop offset="0.0765836" stop-color="#04071F"/>
<stop offset="0.40625" stop-color="#3F43A3"/>
<stop offset="1" stop-color="#04071F" stop-opacity="0.76"/>
</linearGradient>
<linearGradient id="paint26_linear_28_381" x1="109.626" y1="143" x2="109.626" y2="1161.5" gradientUnits="userSpaceOnUse">
<stop offset="0.0765836" stop-color="#04071F"/>
<stop offset="0.40625" stop-color="#3F43A3"/>
<stop offset="1" stop-color="#04071F" stop-opacity="0.76"/>
</linearGradient>
<linearGradient id="paint27_linear_28_381" x1="102.626" y1="149" x2="102.626" y2="1167.5" gradientUnits="userSpaceOnUse">
<stop offset="0.0765836" stop-color="#04071F"/>
<stop offset="0.40625" stop-color="#3F43A3"/>
<stop offset="1" stop-color="#04071F" stop-opacity="0.76"/>
</linearGradient>
<linearGradient id="paint28_linear_28_381" x1="106.626" y1="152" x2="106.626" y2="1170.5" gradientUnits="userSpaceOnUse">
<stop offset="0.0765836" stop-color="#04071F"/>
<stop offset="0.40625" stop-color="#3F43A3"/>
<stop offset="1" stop-color="#04071F" stop-opacity="0.76"/>
</linearGradient>
<linearGradient id="paint29_linear_28_381" x1="109.626" y1="152" x2="109.626" y2="1170.5" gradientUnits="userSpaceOnUse">
<stop offset="0.0765836" stop-color="#04071F"/>
<stop offset="0.40625" stop-color="#3F43A3"/>
<stop offset="1" stop-color="#04071F" stop-opacity="0.76"/>
</linearGradient>
<linearGradient id="paint30_linear_28_381" x1="109.626" y1="155" x2="109.626" y2="1173.5" gradientUnits="userSpaceOnUse">
<stop offset="0.0765836" stop-color="#04071F"/>
<stop offset="0.40625" stop-color="#3F43A3"/>
<stop offset="1" stop-color="#04071F" stop-opacity="0.76"/>
</linearGradient>
<linearGradient id="paint31_linear_28_381" x1="109.626" y1="155" x2="109.626" y2="1173.5" gradientUnits="userSpaceOnUse">
<stop offset="0.0765836" stop-color="#04071F"/>
<stop offset="0.40625" stop-color="#3F43A3"/>
<stop offset="1" stop-color="#04071F" stop-opacity="0.76"/>
</linearGradient>
<linearGradient id="paint32_linear_28_381" x1="112.626" y1="158" x2="112.626" y2="1176.5" gradientUnits="userSpaceOnUse">
<stop offset="0.0765836" stop-color="#04071F"/>
<stop offset="0.40625" stop-color="#3F43A3"/>
<stop offset="1" stop-color="#04071F" stop-opacity="0.76"/>
</linearGradient>
<linearGradient id="paint33_linear_28_381" x1="112.626" y1="162" x2="112.626" y2="1180.5" gradientUnits="userSpaceOnUse">
<stop offset="0.0765836" stop-color="#04071F"/>
<stop offset="0.40625" stop-color="#3F43A3"/>
<stop offset="1" stop-color="#04071F" stop-opacity="0.76"/>
</linearGradient>
<linearGradient id="paint34_linear_28_381" x1="112.626" y1="165" x2="112.626" y2="1183.5" gradientUnits="userSpaceOnUse">
<stop offset="0.0765836" stop-color="#04071F"/>
<stop offset="0.40625" stop-color="#3F43A3"/>
<stop offset="1" stop-color="#04071F" stop-opacity="0.76"/>
</linearGradient>
<linearGradient id="paint35_linear_28_381" x1="116.626" y1="165" x2="116.626" y2="1183.5" gradientUnits="userSpaceOnUse">
<stop offset="0.0765836" stop-color="#04071F"/>
<stop offset="0.40625" stop-color="#3F43A3"/>
<stop offset="1" stop-color="#04071F" stop-opacity="0.76"/>
</linearGradient>
<linearGradient id="paint36_linear_28_381" x1="116.626" y1="165" x2="116.626" y2="1183.5" gradientUnits="userSpaceOnUse">
<stop offset="0.0765836" stop-color="#04071F"/>
<stop offset="0.40625" stop-color="#3F43A3"/>
<stop offset="1" stop-color="#04071F" stop-opacity="0.76"/>
</linearGradient>
<linearGradient id="paint37_linear_28_381" x1="116.626" y1="170" x2="116.626" y2="1188.5" gradientUnits="userSpaceOnUse">
<stop offset="0.0765836" stop-color="#04071F"/>
<stop offset="0.40625" stop-color="#3F43A3"/>
<stop offset="1" stop-color="#04071F" stop-opacity="0.76"/>
</linearGradient>
<linearGradient id="paint38_linear_28_381" x1="119.626" y1="170" x2="119.626" y2="1188.5" gradientUnits="userSpaceOnUse">
<stop offset="0.0765836" stop-color="#04071F"/>
<stop offset="0.40625" stop-color="#3F43A3"/>
<stop offset="1" stop-color="#04071F" stop-opacity="0.76"/>
</linearGradient>
<linearGradient id="paint39_linear_28_381" x1="119.626" y1="174" x2="119.626" y2="1192.5" gradientUnits="userSpaceOnUse">
<stop offset="0.0765836" stop-color="#04071F"/>
<stop offset="0.40625" stop-color="#3F43A3"/>
<stop offset="1" stop-color="#04071F" stop-opacity="0.76"/>
</linearGradient>
<linearGradient id="paint40_linear_28_381" x1="119.626" y1="179" x2="119.626" y2="1197.5" gradientUnits="userSpaceOnUse">
<stop offset="0.0765836" stop-color="#04071F"/>
<stop offset="0.40625" stop-color="#3F43A3"/>
<stop offset="1" stop-color="#04071F" stop-opacity="0.76"/>
</linearGradient>
<linearGradient id="paint41_linear_28_381" x1="119.626" y1="182" x2="119.626" y2="1200.5" gradientUnits="userSpaceOnUse">
<stop offset="0.0765836" stop-color="#04071F"/>
<stop offset="0.40625" stop-color="#3F43A3"/>
<stop offset="1" stop-color="#04071F" stop-opacity="0.76"/>
</linearGradient>
<linearGradient id="paint42_linear_28_381" x1="119.626" y1="188" x2="119.626" y2="1206.5" gradientUnits="userSpaceOnUse">
<stop offset="0.0765836" stop-color="#04071F"/>
<stop offset="0.40625" stop-color="#3F43A3"/>
<stop offset="1" stop-color="#04071F" stop-opacity="0.76"/>
</linearGradient>
<linearGradient id="paint43_linear_28_381" x1="123.626" y1="191" x2="123.626" y2="1209.5" gradientUnits="userSpaceOnUse">
<stop offset="0.0765836" stop-color="#04071F"/>
<stop offset="0.40625" stop-color="#3F43A3"/>
<stop offset="1" stop-color="#04071F" stop-opacity="0.76"/>
</linearGradient>
<linearGradient id="paint44_linear_28_381" x1="123.626" y1="194" x2="123.626" y2="1212.5" gradientUnits="userSpaceOnUse">
<stop offset="0.0765836" stop-color="#04071F"/>
<stop offset="0.40625" stop-color="#3F43A3"/>
<stop offset="1" stop-color="#04071F" stop-opacity="0.76"/>
</linearGradient>
<linearGradient id="paint45_linear_28_381" x1="123.626" y1="198" x2="123.626" y2="1216.5" gradientUnits="userSpaceOnUse">
<stop offset="0.0765836" stop-color="#04071F"/>
<stop offset="0.40625" stop-color="#3F43A3"/>
<stop offset="1" stop-color="#04071F" stop-opacity="0.76"/>
</linearGradient>
<linearGradient id="paint46_linear_28_381" x1="123.626" y1="202" x2="123.626" y2="1220.5" gradientUnits="userSpaceOnUse">
<stop offset="0.0765836" stop-color="#04071F"/>
<stop offset="0.40625" stop-color="#3F43A3"/>
<stop offset="1" stop-color="#04071F" stop-opacity="0.76"/>
</linearGradient>
<linearGradient id="paint47_linear_28_381" x1="123.626" y1="206" x2="123.626" y2="1224.5" gradientUnits="userSpaceOnUse">
<stop offset="0.0765836" stop-color="#04071F"/>
<stop offset="0.40625" stop-color="#3F43A3"/>
<stop offset="1" stop-color="#04071F" stop-opacity="0.76"/>
</linearGradient>
<linearGradient id="paint48_linear_28_381" x1="123.626" y1="210" x2="123.626" y2="1228.5" gradientUnits="userSpaceOnUse">
<stop offset="0.0765836" stop-color="#04071F"/>
<stop offset="0.40625" stop-color="#3F43A3"/>
<stop offset="1" stop-color="#04071F" stop-opacity="0.76"/>
</linearGradient>
<linearGradient id="paint49_linear_28_381" x1="116.626" y1="198" x2="116.626" y2="1216.5" gradientUnits="userSpaceOnUse">
<stop offset="0.0765836" stop-color="#04071F"/>
<stop offset="0.40625" stop-color="#3F43A3"/>
<stop offset="1" stop-color="#04071F" stop-opacity="0.76"/>
</linearGradient>
<linearGradient id="paint50_linear_28_381" x1="123.626" y1="215" x2="123.626" y2="1233.5" gradientUnits="userSpaceOnUse">
<stop offset="0.0765836" stop-color="#04071F"/>
<stop offset="0.40625" stop-color="#3F43A3"/>
<stop offset="1" stop-color="#04071F" stop-opacity="0.76"/>
</linearGradient>
<linearGradient id="paint51_linear_28_381" x1="123.626" y1="220" x2="123.626" y2="1238.5" gradientUnits="userSpaceOnUse">
<stop offset="0.0765836" stop-color="#04071F"/>
<stop offset="0.40625" stop-color="#3F43A3"/>
<stop offset="1" stop-color="#04071F" stop-opacity="0.76"/>
</linearGradient>
<linearGradient id="paint52_linear_28_381" x1="123.626" y1="224" x2="123.626" y2="1242.5" gradientUnits="userSpaceOnUse">
<stop offset="0.0765836" stop-color="#04071F"/>
<stop offset="0.40625" stop-color="#3F43A3"/>
<stop offset="1" stop-color="#04071F" stop-opacity="0.76"/>
</linearGradient>
<linearGradient id="paint53_linear_28_381" x1="123.626" y1="229" x2="123.626" y2="1247.5" gradientUnits="userSpaceOnUse">
<stop offset="0.0765836" stop-color="#04071F"/>
<stop offset="0.40625" stop-color="#3F43A3"/>
<stop offset="1" stop-color="#04071F" stop-opacity="0.76"/>
</linearGradient>
<linearGradient id="paint54_linear_28_381" x1="92.6256" y1="265" x2="92.6256" y2="1283.5" gradientUnits="userSpaceOnUse">
<stop offset="0.0765836" stop-color="#04071F"/>
<stop offset="0.40625" stop-color="#3F43A3"/>
<stop offset="1" stop-color="#04071F" stop-opacity="0.76"/>
</linearGradient>
<linearGradient id="paint55_linear_28_381" x1="92.6256" y1="265" x2="92.6256" y2="1283.5" gradientUnits="userSpaceOnUse">
<stop offset="0.0765836" stop-color="#04071F"/>
<stop offset="0.40625" stop-color="#3F43A3"/>
<stop offset="1" stop-color="#04071F" stop-opacity="0.76"/>
</linearGradient>
<linearGradient id="paint56_linear_28_381" x1="161.442" y1="39.2848" x2="375.809" y2="1034.97" gradientUnits="userSpaceOnUse">
<stop offset="0.0765836" stop-color="#04071F"/>
<stop offset="0.40625" stop-color="#3F43A3"/>
<stop offset="1" stop-color="#04071F" stop-opacity="0.76"/>
</linearGradient>
<linearGradient id="paint57_linear_28_381" x1="165.573" y1="10.2848" x2="379.94" y2="1005.97" gradientUnits="userSpaceOnUse">
<stop offset="0.0765836" stop-color="#04071F"/>
<stop offset="0.40625" stop-color="#3F43A3"/>
<stop offset="1" stop-color="#04071F" stop-opacity="0.76"/>
</linearGradient>
<linearGradient id="paint58_linear_28_381" x1="161.573" y1="19.2848" x2="375.94" y2="1014.97" gradientUnits="userSpaceOnUse">
<stop offset="0.0765836" stop-color="#04071F"/>
<stop offset="0.40625" stop-color="#3F43A3"/>
<stop offset="1" stop-color="#04071F" stop-opacity="0.76"/>
</linearGradient>
<linearGradient id="paint59_linear_28_381" x1="158.573" y1="69.2848" x2="372.94" y2="1064.97" gradientUnits="userSpaceOnUse">
<stop offset="0.0765836" stop-color="#04071F"/>
<stop offset="0.40625" stop-color="#3F43A3"/>
<stop offset="1" stop-color="#04071F" stop-opacity="0.76"/>
</linearGradient>
<linearGradient id="paint60_linear_28_381" x1="157.573" y1="29.2848" x2="371.94" y2="1024.97" gradientUnits="userSpaceOnUse">
<stop offset="0.0765836" stop-color="#04071F"/>
<stop offset="0.40625" stop-color="#3F43A3"/>
<stop offset="1" stop-color="#04071F" stop-opacity="0.76"/>
</linearGradient>
<linearGradient id="paint61_linear_28_381" x1="157.573" y1="38.2848" x2="371.94" y2="1033.97" gradientUnits="userSpaceOnUse">
<stop offset="0.0765836" stop-color="#04071F"/>
<stop offset="0.40625" stop-color="#3F43A3"/>
<stop offset="1" stop-color="#04071F" stop-opacity="0.76"/>
</linearGradient>
<linearGradient id="paint62_linear_28_381" x1="157.573" y1="44.2848" x2="371.94" y2="1039.97" gradientUnits="userSpaceOnUse">
<stop offset="0.0765836" stop-color="#04071F"/>
<stop offset="0.40625" stop-color="#3F43A3"/>
<stop offset="1" stop-color="#04071F" stop-opacity="0.76"/>
</linearGradient>
<linearGradient id="paint63_linear_28_381" x1="157.573" y1="54.2848" x2="371.94" y2="1049.97" gradientUnits="userSpaceOnUse">
<stop offset="0.0765836" stop-color="#04071F"/>
<stop offset="0.40625" stop-color="#3F43A3"/>
<stop offset="1" stop-color="#04071F" stop-opacity="0.76"/>
</linearGradient>
<linearGradient id="paint64_linear_28_381" x1="157.573" y1="62.2848" x2="371.94" y2="1057.97" gradientUnits="userSpaceOnUse">
<stop offset="0.0765836" stop-color="#04071F"/>
<stop offset="0.40625" stop-color="#3F43A3"/>
<stop offset="1" stop-color="#04071F" stop-opacity="0.76"/>
</linearGradient>
<linearGradient id="paint65_linear_28_381" x1="158.573" y1="72.2848" x2="372.94" y2="1067.97" gradientUnits="userSpaceOnUse">
<stop offset="0.0765836" stop-color="#04071F"/>
<stop offset="0.40625" stop-color="#3F43A3"/>
<stop offset="1" stop-color="#04071F" stop-opacity="0.76"/>
</linearGradient>
<linearGradient id="paint66_linear_28_381" x1="157.573" y1="82.2848" x2="371.94" y2="1077.97" gradientUnits="userSpaceOnUse">
<stop offset="0.0765836" stop-color="#04071F"/>
<stop offset="0.40625" stop-color="#3F43A3"/>
<stop offset="1" stop-color="#04071F" stop-opacity="0.76"/>
</linearGradient>
<linearGradient id="paint67_linear_28_381" x1="165.573" y1="78.2848" x2="379.94" y2="1073.97" gradientUnits="userSpaceOnUse">
<stop offset="0.0765836" stop-color="#04071F"/>
<stop offset="0.40625" stop-color="#3F43A3"/>
<stop offset="1" stop-color="#04071F" stop-opacity="0.76"/>
</linearGradient>
<linearGradient id="paint68_linear_28_381" x1="157.573" y1="87.2848" x2="371.94" y2="1082.97" gradientUnits="userSpaceOnUse">
<stop offset="0.0765836" stop-color="#04071F"/>
<stop offset="0.40625" stop-color="#3F43A3"/>
<stop offset="1" stop-color="#04071F" stop-opacity="0.76"/>
</linearGradient>
<linearGradient id="paint69_linear_28_381" x1="157.573" y1="93.2848" x2="371.94" y2="1088.97" gradientUnits="userSpaceOnUse">
<stop offset="0.0765836" stop-color="#04071F"/>
<stop offset="0.40625" stop-color="#3F43A3"/>
<stop offset="1" stop-color="#04071F" stop-opacity="0.76"/>
</linearGradient>
<linearGradient id="paint70_linear_28_381" x1="158.573" y1="101.285" x2="372.94" y2="1096.97" gradientUnits="userSpaceOnUse">
<stop offset="0.0765836" stop-color="#04071F"/>
<stop offset="0.40625" stop-color="#3F43A3"/>
<stop offset="1" stop-color="#04071F" stop-opacity="0.76"/>
</linearGradient>
<linearGradient id="paint71_linear_28_381" x1="158.573" y1="111.285" x2="372.94" y2="1106.97" gradientUnits="userSpaceOnUse">
<stop offset="0.0765836" stop-color="#04071F"/>
<stop offset="0.40625" stop-color="#3F43A3"/>
<stop offset="1" stop-color="#04071F" stop-opacity="0.76"/>
</linearGradient>
<linearGradient id="paint72_linear_28_381" x1="161.573" y1="116.285" x2="375.94" y2="1111.97" gradientUnits="userSpaceOnUse">
<stop offset="0.0765836" stop-color="#04071F"/>
<stop offset="0.40625" stop-color="#3F43A3"/>
<stop offset="1" stop-color="#04071F" stop-opacity="0.76"/>
</linearGradient>
<linearGradient id="paint73_linear_28_381" x1="161.573" y1="123.285" x2="375.94" y2="1118.97" gradientUnits="userSpaceOnUse">
<stop offset="0.0765836" stop-color="#04071F"/>
<stop offset="0.40625" stop-color="#3F43A3"/>
<stop offset="1" stop-color="#04071F" stop-opacity="0.76"/>
</linearGradient>
<linearGradient id="paint74_linear_28_381" x1="157.573" y1="131.285" x2="371.94" y2="1126.97" gradientUnits="userSpaceOnUse">
<stop offset="0.0765836" stop-color="#04071F"/>
<stop offset="0.40625" stop-color="#3F43A3"/>
<stop offset="1" stop-color="#04071F" stop-opacity="0.76"/>
</linearGradient>
<linearGradient id="paint75_linear_28_381" x1="157.573" y1="142.285" x2="371.94" y2="1137.97" gradientUnits="userSpaceOnUse">
<stop offset="0.0765836" stop-color="#04071F"/>
<stop offset="0.40625" stop-color="#3F43A3"/>
<stop offset="1" stop-color="#04071F" stop-opacity="0.76"/>
</linearGradient>
<linearGradient id="paint76_linear_28_381" x1="157.573" y1="150.285" x2="371.94" y2="1145.97" gradientUnits="userSpaceOnUse">
<stop offset="0.0765836" stop-color="#04071F"/>
<stop offset="0.40625" stop-color="#3F43A3"/>
<stop offset="1" stop-color="#04071F" stop-opacity="0.76"/>
</linearGradient>
<linearGradient id="paint77_linear_28_381" x1="157.573" y1="155.285" x2="371.94" y2="1150.97" gradientUnits="userSpaceOnUse">
<stop offset="0.0765836" stop-color="#04071F"/>
<stop offset="0.40625" stop-color="#3F43A3"/>
<stop offset="1" stop-color="#04071F" stop-opacity="0.76"/>
</linearGradient>
<linearGradient id="paint78_linear_28_381" x1="158.573" y1="163.285" x2="372.94" y2="1158.97" gradientUnits="userSpaceOnUse">
<stop offset="0.0765836" stop-color="#04071F"/>
<stop offset="0.40625" stop-color="#3F43A3"/>
<stop offset="1" stop-color="#04071F" stop-opacity="0.76"/>
</linearGradient>
<linearGradient id="paint79_linear_28_381" x1="158.573" y1="170.285" x2="372.94" y2="1165.97" gradientUnits="userSpaceOnUse">
<stop offset="0.0765836" stop-color="#04071F"/>
<stop offset="0.40625" stop-color="#3F43A3"/>
<stop offset="1" stop-color="#04071F" stop-opacity="0.76"/>
</linearGradient>
<linearGradient id="paint80_linear_28_381" x1="148.573" y1="182.285" x2="362.94" y2="1177.97" gradientUnits="userSpaceOnUse">
<stop offset="0.0765836" stop-color="#04071F"/>
<stop offset="0.40625" stop-color="#3F43A3"/>
<stop offset="1" stop-color="#04071F" stop-opacity="0.76"/>
</linearGradient>
<linearGradient id="paint81_linear_28_381" x1="157.573" y1="190.285" x2="371.94" y2="1185.97" gradientUnits="userSpaceOnUse">
<stop offset="0.0765836" stop-color="#04071F"/>
<stop offset="0.40625" stop-color="#3F43A3"/>
<stop offset="1" stop-color="#04071F" stop-opacity="0.76"/>
</linearGradient>
<linearGradient id="paint82_linear_28_381" x1="148.573" y1="202.285" x2="362.94" y2="1197.97" gradientUnits="userSpaceOnUse">
<stop offset="0.0765836" stop-color="#04071F"/>
<stop offset="0.40625" stop-color="#3F43A3"/>
<stop offset="1" stop-color="#04071F" stop-opacity="0.76"/>
</linearGradient>
<linearGradient id="paint83_linear_28_381" x1="169.573" y1="202.285" x2="383.94" y2="1197.97" gradientUnits="userSpaceOnUse">
<stop offset="0.0765836" stop-color="#04071F"/>
<stop offset="0.40625" stop-color="#3F43A3"/>
<stop offset="1" stop-color="#04071F" stop-opacity="0.76"/>
</linearGradient>
<linearGradient id="paint84_linear_28_381" x1="161.573" y1="206.285" x2="375.94" y2="1201.97" gradientUnits="userSpaceOnUse">
<stop offset="0.0765836" stop-color="#04071F"/>
<stop offset="0.40625" stop-color="#3F43A3"/>
<stop offset="1" stop-color="#04071F" stop-opacity="0.76"/>
</linearGradient>
<linearGradient id="paint85_linear_28_381" x1="157.573" y1="212.285" x2="371.94" y2="1207.97" gradientUnits="userSpaceOnUse">
<stop offset="0.0765836" stop-color="#04071F"/>
<stop offset="0.40625" stop-color="#3F43A3"/>
<stop offset="1" stop-color="#04071F" stop-opacity="0.76"/>
</linearGradient>
<linearGradient id="paint86_linear_28_381" x1="148.573" y1="221.285" x2="362.94" y2="1216.97" gradientUnits="userSpaceOnUse">
<stop offset="0.0765836" stop-color="#04071F"/>
<stop offset="0.40625" stop-color="#3F43A3"/>
<stop offset="1" stop-color="#04071F" stop-opacity="0.76"/>
</linearGradient>
<linearGradient id="paint87_linear_28_381" x1="152.573" y1="237.285" x2="366.94" y2="1232.97" gradientUnits="userSpaceOnUse">
<stop offset="0.0765836" stop-color="#04071F"/>
<stop offset="0.40625" stop-color="#3F43A3"/>
<stop offset="1" stop-color="#04071F" stop-opacity="0.76"/>
</linearGradient>
<linearGradient id="paint88_linear_28_381" x1="152.573" y1="249.285" x2="366.94" y2="1244.97" gradientUnits="userSpaceOnUse">
<stop offset="0.0765836" stop-color="#04071F"/>
<stop offset="0.40625" stop-color="#3F43A3"/>
<stop offset="1" stop-color="#04071F" stop-opacity="0.76"/>
</linearGradient>
<linearGradient id="paint89_linear_28_381" x1="152.573" y1="259.285" x2="366.94" y2="1254.97" gradientUnits="userSpaceOnUse">
<stop offset="0.0765836" stop-color="#04071F"/>
<stop offset="0.40625" stop-color="#3F43A3"/>
<stop offset="1" stop-color="#04071F" stop-opacity="0.76"/>
</linearGradient>
<linearGradient id="paint90_linear_28_381" x1="148.573" y1="262.285" x2="362.94" y2="1257.97" gradientUnits="userSpaceOnUse">
<stop offset="0.0765836" stop-color="#04071F"/>
<stop offset="0.40625" stop-color="#3F43A3"/>
<stop offset="1" stop-color="#04071F" stop-opacity="0.76"/>
</linearGradient>
<linearGradient id="paint91_linear_28_381" x1="148.573" y1="267.285" x2="362.94" y2="1262.97" gradientUnits="userSpaceOnUse">
<stop offset="0.0765836" stop-color="#04071F"/>
<stop offset="0.40625" stop-color="#3F43A3"/>
<stop offset="1" stop-color="#04071F" stop-opacity="0.76"/>
</linearGradient>
<linearGradient id="paint92_linear_28_381" x1="158.573" y1="253.285" x2="372.94" y2="1248.97" gradientUnits="userSpaceOnUse">
<stop offset="0.0765836" stop-color="#04071F"/>
<stop offset="0.40625" stop-color="#3F43A3"/>
<stop offset="1" stop-color="#04071F" stop-opacity="0.76"/>
</linearGradient>
<linearGradient id="paint93_linear_28_381" x1="165.573" y1="245.285" x2="379.94" y2="1240.97" gradientUnits="userSpaceOnUse">
<stop offset="0.0765836" stop-color="#04071F"/>
<stop offset="0.40625" stop-color="#3F43A3"/>
<stop offset="1" stop-color="#04071F" stop-opacity="0.76"/>
</linearGradient>
<linearGradient id="paint94_linear_28_381" x1="109.626" y1="-45" x2="109.626" y2="973.495" gradientUnits="userSpaceOnUse">
<stop offset="0.0765836" stop-color="#04071F"/>
<stop offset="0.40625" stop-color="#3F43A3"/>
<stop offset="1" stop-color="#04071F" stop-opacity="0.76"/>
</linearGradient>
<linearGradient id="paint95_linear_28_381" x1="116.626" y1="-45" x2="116.626" y2="973.495" gradientUnits="userSpaceOnUse">
<stop offset="0.0765836" stop-color="#04071F"/>
<stop offset="0.40625" stop-color="#3F43A3"/>
<stop offset="1" stop-color="#04071F" stop-opacity="0.76"/>
</linearGradient>
<linearGradient id="paint96_linear_28_381" x1="123.626" y1="-45" x2="123.626" y2="973.495" gradientUnits="userSpaceOnUse">
<stop offset="0.0765836" stop-color="#04071F"/>
<stop offset="0.40625" stop-color="#3F43A3"/>
<stop offset="1" stop-color="#04071F" stop-opacity="0.76"/>
</linearGradient>
<linearGradient id="paint97_linear_28_381" x1="128.626" y1="-45" x2="128.626" y2="973.495" gradientUnits="userSpaceOnUse">
<stop offset="0.0765836" stop-color="#04071F"/>
<stop offset="0.40625" stop-color="#3F43A3"/>
<stop offset="1" stop-color="#04071F" stop-opacity="0.76"/>
</linearGradient>
<linearGradient id="paint98_linear_28_381" x1="133.626" y1="-45" x2="133.626" y2="973.495" gradientUnits="userSpaceOnUse">
<stop offset="0.0765836" stop-color="#04071F"/>
<stop offset="0.40625" stop-color="#3F43A3"/>
<stop offset="1" stop-color="#04071F" stop-opacity="0.76"/>
</linearGradient>
<linearGradient id="paint99_linear_28_381" x1="138.626" y1="-45" x2="138.626" y2="973.495" gradientUnits="userSpaceOnUse">
<stop offset="0.0765836" stop-color="#04071F"/>
<stop offset="0.40625" stop-color="#3F43A3"/>
<stop offset="1" stop-color="#04071F" stop-opacity="0.76"/>
</linearGradient>
<linearGradient id="paint100_linear_28_381" x1="145.626" y1="-45" x2="145.626" y2="973.495" gradientUnits="userSpaceOnUse">
<stop offset="0.0765836" stop-color="#04071F"/>
<stop offset="0.40625" stop-color="#3F43A3"/>
<stop offset="1" stop-color="#04071F" stop-opacity="0.76"/>
</linearGradient>
<linearGradient id="paint101_linear_28_381" x1="151.626" y1="-45" x2="151.626" y2="973.495" gradientUnits="userSpaceOnUse">
<stop offset="0.0765836" stop-color="#04071F"/>
<stop offset="0.40625" stop-color="#3F43A3"/>
<stop offset="1" stop-color="#04071F" stop-opacity="0.76"/>
</linearGradient>
<linearGradient id="paint102_linear_28_381" x1="151.626" y1="-45" x2="151.626" y2="973.495" gradientUnits="userSpaceOnUse">
<stop offset="0.0765836" stop-color="#04071F"/>
<stop offset="0.40625" stop-color="#3F43A3"/>
<stop offset="1" stop-color="#04071F" stop-opacity="0.76"/>
</linearGradient>
<linearGradient id="paint103_linear_28_381" x1="157.626" y1="-45" x2="157.626" y2="973.495" gradientUnits="userSpaceOnUse">
<stop offset="0.0765836" stop-color="#04071F"/>
<stop offset="0.40625" stop-color="#3F43A3"/>
<stop offset="1" stop-color="#04071F" stop-opacity="0.76"/>
</linearGradient>
<linearGradient id="paint104_linear_28_381" x1="246.862" y1="-44.557" x2="204.389" y2="973.052" gradientUnits="userSpaceOnUse">
<stop offset="0.0765836" stop-color="#04071F"/>
<stop offset="0.40625" stop-color="#3F43A3"/>
<stop offset="1" stop-color="#04071F" stop-opacity="0.76"/>
</linearGradient>
<linearGradient id="paint105_linear_28_381" x1="254.019" y1="-44.179" x2="211.546" y2="973.43" gradientUnits="userSpaceOnUse">
<stop offset="0.0765836" stop-color="#04071F"/>
<stop offset="0.40625" stop-color="#3F43A3"/>
<stop offset="1" stop-color="#04071F" stop-opacity="0.76"/>
</linearGradient>
<linearGradient id="paint106_linear_28_381" x1="258.019" y1="-36.179" x2="215.546" y2="981.43" gradientUnits="userSpaceOnUse">
<stop offset="0.0765836" stop-color="#04071F"/>
<stop offset="0.40625" stop-color="#3F43A3"/>
<stop offset="1" stop-color="#04071F" stop-opacity="0.76"/>
</linearGradient>
<linearGradient id="paint107_linear_28_381" x1="263.019" y1="-26.179" x2="220.546" y2="991.43" gradientUnits="userSpaceOnUse">
<stop offset="0.0765836" stop-color="#04071F"/>
<stop offset="0.40625" stop-color="#3F43A3"/>
<stop offset="1" stop-color="#04071F" stop-opacity="0.76"/>
</linearGradient>
<linearGradient id="paint108_linear_28_381" x1="268.019" y1="-14.179" x2="225.546" y2="1003.43" gradientUnits="userSpaceOnUse">
<stop offset="0.0765836" stop-color="#04071F"/>
<stop offset="0.40625" stop-color="#3F43A3"/>
<stop offset="1" stop-color="#04071F" stop-opacity="0.76"/>
</linearGradient>
<linearGradient id="paint109_linear_28_381" x1="273.019" y1="-5.179" x2="230.546" y2="1012.43" gradientUnits="userSpaceOnUse">
<stop offset="0.0765836" stop-color="#04071F"/>
<stop offset="0.40625" stop-color="#3F43A3"/>
<stop offset="1" stop-color="#04071F" stop-opacity="0.76"/>
</linearGradient>
<linearGradient id="paint110_linear_28_381" x1="276.019" y1="4.821" x2="233.546" y2="1022.43" gradientUnits="userSpaceOnUse">
<stop offset="0.0765836" stop-color="#04071F"/>
<stop offset="0.40625" stop-color="#3F43A3"/>
<stop offset="1" stop-color="#04071F" stop-opacity="0.76"/>
</linearGradient>
<linearGradient id="paint111_linear_28_381" x1="279.019" y1="12.821" x2="236.546" y2="1030.43" gradientUnits="userSpaceOnUse">
<stop offset="0.0765836" stop-color="#04071F"/>
<stop offset="0.40625" stop-color="#3F43A3"/>
<stop offset="1" stop-color="#04071F" stop-opacity="0.76"/>
</linearGradient>
<linearGradient id="paint112_linear_28_381" x1="281.019" y1="20.821" x2="238.546" y2="1038.43" gradientUnits="userSpaceOnUse">
<stop offset="0.0765836" stop-color="#04071F"/>
<stop offset="0.40625" stop-color="#3F43A3"/>
<stop offset="1" stop-color="#04071F" stop-opacity="0.76"/>
</linearGradient>
<linearGradient id="paint113_linear_28_381" x1="286.019" y1="32.821" x2="243.546" y2="1050.43" gradientUnits="userSpaceOnUse">
<stop offset="0.0765836" stop-color="#04071F"/>
<stop offset="0.40625" stop-color="#3F43A3"/>
<stop offset="1" stop-color="#04071F" stop-opacity="0.76"/>
</linearGradient>
<linearGradient id="paint114_linear_28_381" x1="289.019" y1="38.821" x2="246.546" y2="1056.43" gradientUnits="userSpaceOnUse">
<stop offset="0.0765836" stop-color="#04071F"/>
<stop offset="0.40625" stop-color="#3F43A3"/>
<stop offset="1" stop-color="#04071F" stop-opacity="0.76"/>
</linearGradient>
<linearGradient id="paint115_linear_28_381" x1="293.019" y1="45.821" x2="250.546" y2="1063.43" gradientUnits="userSpaceOnUse">
<stop offset="0.0765836" stop-color="#04071F"/>
<stop offset="0.40625" stop-color="#3F43A3"/>
<stop offset="1" stop-color="#04071F" stop-opacity="0.76"/>
</linearGradient>
<linearGradient id="paint116_linear_28_381" x1="298.019" y1="56.821" x2="255.546" y2="1074.43" gradientUnits="userSpaceOnUse">
<stop offset="0.0765836" stop-color="#04071F"/>
<stop offset="0.40625" stop-color="#3F43A3"/>
<stop offset="1" stop-color="#04071F" stop-opacity="0.76"/>
</linearGradient>
<linearGradient id="paint117_linear_28_381" x1="300.019" y1="66.821" x2="257.546" y2="1084.43" gradientUnits="userSpaceOnUse">
<stop offset="0.0765836" stop-color="#04071F"/>
<stop offset="0.40625" stop-color="#3F43A3"/>
<stop offset="1" stop-color="#04071F" stop-opacity="0.76"/>
</linearGradient>
<linearGradient id="paint118_linear_28_381" x1="306.019" y1="71.821" x2="263.546" y2="1089.43" gradientUnits="userSpaceOnUse">
<stop offset="0.0765836" stop-color="#04071F"/>
<stop offset="0.40625" stop-color="#3F43A3"/>
<stop offset="1" stop-color="#04071F" stop-opacity="0.76"/>
</linearGradient>
<linearGradient id="paint119_linear_28_381" x1="307.019" y1="85.821" x2="264.546" y2="1103.43" gradientUnits="userSpaceOnUse">
<stop offset="0.0765836" stop-color="#04071F"/>
<stop offset="0.40625" stop-color="#3F43A3"/>
<stop offset="1" stop-color="#04071F" stop-opacity="0.76"/>
</linearGradient>
<linearGradient id="paint120_linear_28_381" x1="311.019" y1="90.821" x2="268.546" y2="1108.43" gradientUnits="userSpaceOnUse">
<stop offset="0.0765836" stop-color="#04071F"/>
<stop offset="0.40625" stop-color="#3F43A3"/>
<stop offset="1" stop-color="#04071F" stop-opacity="0.76"/>
</linearGradient>
<linearGradient id="paint121_linear_28_381" x1="312.019" y1="107.821" x2="269.546" y2="1125.43" gradientUnits="userSpaceOnUse">
<stop offset="0.0765836" stop-color="#04071F"/>
<stop offset="0.40625" stop-color="#3F43A3"/>
<stop offset="1" stop-color="#04071F" stop-opacity="0.76"/>
</linearGradient>
<linearGradient id="paint122_linear_28_381" x1="316.019" y1="115.821" x2="273.546" y2="1133.43" gradientUnits="userSpaceOnUse">
<stop offset="0.0765836" stop-color="#04071F"/>
<stop offset="0.40625" stop-color="#3F43A3"/>
<stop offset="1" stop-color="#04071F" stop-opacity="0.76"/>
</linearGradient>
<linearGradient id="paint123_linear_28_381" x1="319.019" y1="131.821" x2="276.546" y2="1149.43" gradientUnits="userSpaceOnUse">
<stop offset="0.0765836" stop-color="#04071F"/>
<stop offset="0.40625" stop-color="#3F43A3"/>
<stop offset="1" stop-color="#04071F" stop-opacity="0.76"/>
</linearGradient>
<linearGradient id="paint124_linear_28_381" x1="324.019" y1="137.821" x2="281.546" y2="1155.43" gradientUnits="userSpaceOnUse">
<stop offset="0.0765836" stop-color="#04071F"/>
<stop offset="0.40625" stop-color="#3F43A3"/>
<stop offset="1" stop-color="#04071F" stop-opacity="0.76"/>
</linearGradient>
<linearGradient id="paint125_linear_28_381" x1="325.019" y1="144.821" x2="282.546" y2="1162.43" gradientUnits="userSpaceOnUse">
<stop offset="0.0765836" stop-color="#04071F"/>
<stop offset="0.40625" stop-color="#3F43A3"/>
<stop offset="1" stop-color="#04071F" stop-opacity="0.76"/>
</linearGradient>
<linearGradient id="paint126_linear_28_381" x1="329.019" y1="155.821" x2="286.546" y2="1173.43" gradientUnits="userSpaceOnUse">
<stop offset="0.0765836" stop-color="#04071F"/>
<stop offset="0.40625" stop-color="#3F43A3"/>
<stop offset="1" stop-color="#04071F" stop-opacity="0.76"/>
</linearGradient>
<linearGradient id="paint127_linear_28_381" x1="251.019" y1="-39.179" x2="208.546" y2="978.43" gradientUnits="userSpaceOnUse">
<stop offset="0.0765836" stop-color="#04071F"/>
<stop offset="0.40625" stop-color="#3F43A3"/>
<stop offset="1" stop-color="#04071F" stop-opacity="0.76"/>
</linearGradient>
</defs>
</svg>
