<svg width="30" height="30" viewBox="0 0 30 30" fill="none" xmlns="http://www.w3.org/2000/svg">
<path d="M14.5833 29.1667C12.5903 29.1667 10.7066 28.7839 8.93229 28.0182C7.15799 27.2526 5.60851 26.2075 4.28385 24.8828C2.9592 23.5582 1.91406 22.0087 1.14844 20.2344C0.382812 18.4601 0 16.5764 0 14.5833C0 12.566 0.382812 10.6762 1.14844 8.91406C1.91406 7.15191 2.9592 5.60851 4.28385 4.28385C5.60851 2.9592 7.15799 1.91406 8.93229 1.14844C10.7066 0.382812 12.5903 0 14.5833 0C16.6007 0 18.4904 0.382812 20.2526 1.14844C22.0148 1.91406 23.5582 2.9592 24.8828 4.28385C26.2075 5.60851 27.2526 7.15191 28.0182 8.91406C28.7839 10.6762 29.1667 12.566 29.1667 14.5833V16.6979C29.1667 18.1319 28.6745 19.3533 27.6901 20.362C26.7057 21.3707 25.4965 21.875 24.0625 21.875C23.1875 21.875 22.3733 21.6806 21.6198 21.2917C20.8663 20.9028 20.2465 20.3924 19.7604 19.7604C19.1042 20.4167 18.3325 20.9332 17.4453 21.3099C16.5582 21.6866 15.6042 21.875 14.5833 21.875C12.566 21.875 10.8464 21.1641 9.42448 19.7422C8.0026 18.3203 7.29167 16.6007 7.29167 14.5833C7.29167 12.566 8.0026 10.8464 9.42448 9.42448C10.8464 8.0026 12.566 7.29167 14.5833 7.29167C16.6007 7.29167 18.3203 8.0026 19.7422 9.42448C21.1641 10.8464 21.875 12.566 21.875 14.5833V16.6979C21.875 17.4028 22.0937 17.9557 22.5312 18.3568C22.9687 18.7578 23.4792 18.9583 24.0625 18.9583C24.6458 18.9583 25.1562 18.7578 25.5938 18.3568C26.0312 17.9557 26.25 17.4028 26.25 16.6979V14.5833C26.25 11.3993 25.1016 8.65885 22.8047 6.36198C20.5078 4.0651 17.7674 2.91667 14.5833 2.91667C11.3993 2.91667 8.65885 4.0651 6.36198 6.36198C4.0651 8.65885 2.91667 11.3993 2.91667 14.5833C2.91667 17.7674 4.0651 20.5078 6.36198 22.8047C8.65885 25.1016 11.3993 26.25 14.5833 26.25H21.875V29.1667H14.5833ZM14.5833 18.9583C15.7986 18.9583 16.8316 18.533 17.6823 17.6823C18.533 16.8316 18.9583 15.7986 18.9583 14.5833C18.9583 13.3681 18.533 12.3351 17.6823 11.4844C16.8316 10.6337 15.7986 10.2083 14.5833 10.2083C13.3681 10.2083 12.3351 10.6337 11.4844 11.4844C10.6337 12.3351 10.2083 13.3681 10.2083 14.5833C10.2083 15.7986 10.6337 16.8316 11.4844 17.6823C12.3351 18.533 13.3681 18.9583 14.5833 18.9583Z" fill="#D9D9D9"/>
</svg>
