<svg width="32" height="29" viewBox="0 0 32 29" fill="none" xmlns="http://www.w3.org/2000/svg">
<path d="M21.9636 15.2727L19.8545 13.1636C20.0727 12.0242 19.7455 10.9576 18.8727 9.96364C18 8.9697 16.8727 8.58182 15.4909 8.8L13.3818 6.69091C13.7939 6.49697 14.2121 6.35152 14.6364 6.25455C15.0606 6.15758 15.5152 6.10909 16 6.10909C17.8182 6.10909 19.3636 6.74546 20.6364 8.01818C21.9091 9.29091 22.5455 10.8364 22.5455 12.6545C22.5455 13.1394 22.497 13.5939 22.4 14.0182C22.303 14.4424 22.1576 14.8606 21.9636 15.2727ZM26.6182 19.8545L24.5091 17.8182C25.4303 17.1152 26.2485 16.3455 26.9636 15.5091C27.6788 14.6727 28.2909 13.7212 28.8 12.6545C27.5879 10.2061 25.8485 8.26061 23.5818 6.81818C21.3152 5.37576 18.7879 4.65455 16 4.65455C15.297 4.65455 14.6061 4.70303 13.9273 4.8C13.2485 4.89697 12.5818 5.04243 11.9273 5.23636L9.67273 2.98182C10.6667 2.5697 11.6848 2.26061 12.7273 2.05455C13.7697 1.84849 14.8606 1.74545 16 1.74545C19.6606 1.74545 22.9212 2.75758 25.7818 4.78182C28.6424 6.80606 30.7152 9.4303 32 12.6545C31.4424 14.0849 30.7091 15.4121 29.8 16.6364C28.8909 17.8606 27.8303 18.9333 26.6182 19.8545ZM27.3455 28.8L21.2364 22.7636C20.3879 23.0303 19.5333 23.2303 18.6727 23.3636C17.8121 23.497 16.9212 23.5636 16 23.5636C12.3394 23.5636 9.07879 22.5515 6.21818 20.5273C3.35758 18.503 1.28485 15.8788 0 12.6545C0.509091 11.3697 1.15152 10.1758 1.92727 9.07273C2.70303 7.9697 3.58788 6.98182 4.58182 6.10909L0.581818 2.03636L2.61818 0L29.3818 26.7636L27.3455 28.8ZM6.61818 8.14546C5.91515 8.77576 5.27273 9.46667 4.69091 10.2182C4.10909 10.9697 3.61212 11.7818 3.2 12.6545C4.41212 15.103 6.15152 17.0485 8.41818 18.4909C10.6848 19.9333 13.2121 20.6545 16 20.6545C16.4848 20.6545 16.9576 20.6242 17.4182 20.5636C17.8788 20.503 18.3515 20.4364 18.8364 20.3636L17.5273 18.9818C17.2606 19.0545 17.0061 19.1091 16.7636 19.1455C16.5212 19.1818 16.2667 19.2 16 19.2C14.1818 19.2 12.6364 18.5636 11.3636 17.2909C10.0909 16.0182 9.45455 14.4727 9.45455 12.6545C9.45455 12.3879 9.47273 12.1333 9.50909 11.8909C9.54546 11.6485 9.6 11.3939 9.67273 11.1273L6.61818 8.14546Z" fill="white"/>
</svg>
