<svg width="20" height="13" viewBox="0 0 20 13" fill="none" xmlns="http://www.w3.org/2000/svg">
<path d="M17.7811 6.80516L17.8909 6.58333L17.7811 6.3615C17.0462 4.87697 15.9802 3.6924 14.589 2.81646C13.1957 1.93921 11.6622 1.49999 9.99967 1.49999C8.33714 1.49999 6.80363 1.93921 5.41035 2.81646C4.01915 3.6924 2.95316 4.87697 2.21824 6.3615L2.10843 6.58333L2.21824 6.80516C2.95316 8.28968 4.01915 9.47425 5.41035 10.3502C6.80363 11.2274 8.33714 11.6667 9.99967 11.6667C11.6622 11.6667 13.1957 11.2274 14.589 10.3502C15.9802 9.47425 17.0462 8.28968 17.7811 6.80516ZM12.3024 8.88602C11.668 9.52036 10.9102 9.83333 9.99967 9.83333C9.0891 9.83333 8.33131 9.52036 7.69698 8.88603C7.06264 8.25169 6.74967 7.4939 6.74967 6.58333C6.74967 5.67276 7.06264 4.91497 7.69698 4.28063C8.33131 3.6463 9.0891 3.33333 9.99967 3.33333C10.9102 3.33333 11.668 3.6463 12.3024 4.28063C12.9367 4.91497 13.2497 5.67276 13.2497 6.58333C13.2497 7.4939 12.9367 8.25169 12.3024 8.88602ZM8.05237 8.53063C8.5847 9.06296 9.24358 9.33333 9.99967 9.33333C10.7558 9.33333 11.4146 9.06296 11.947 8.53063C12.4793 7.9983 12.7497 7.33942 12.7497 6.58333C12.7497 5.82723 12.4793 5.16836 11.947 4.63602C11.4146 4.10369 10.7558 3.83333 9.99967 3.83333C9.24358 3.83333 8.5847 4.10369 8.05237 4.63602C7.52004 5.16836 7.24967 5.82723 7.24967 6.58333C7.24967 7.33942 7.52004 7.9983 8.05237 8.53063ZM9.99967 12.3333C8.07138 12.3333 6.32215 11.7971 4.73893 10.7218C3.21055 9.68376 2.09024 8.30797 1.37245 6.58333C2.09024 4.85869 3.21055 3.48289 4.73893 2.44487C6.32215 1.3696 8.07138 0.833328 9.99967 0.833328C11.928 0.833328 13.6772 1.3696 15.2604 2.44487C16.7888 3.48289 17.9091 4.85869 18.6269 6.58333C17.9091 8.30797 16.7888 9.68376 15.2604 10.7218C13.6772 11.7971 11.928 12.3333 9.99967 12.3333Z" fill="#878DCE" stroke="white"/>
</svg>
